<?xml version="1.0" encoding="utf-8"?>
<!-- Generator: Adobe Illustrator 22.1.0, SVG Export Plug-In . SVG Version: 6.00 Build 0)  -->
<svg version="1.1" xmlns="http://www.w3.org/2000/svg" xmlns:xlink="http://www.w3.org/1999/xlink" x="0px" y="0px"
	 viewBox="0 0 259 268" style="enable-background:new 0 0 259 268;" xml:space="preserve">
<style type="text/css">
	.st0{fill:#FFFF00;stroke:#000000;stroke-width:5;stroke-miterlimit:10;}
	.st1{fill:#FFFFFF;stroke:#000000;stroke-width:5;stroke-miterlimit:10;}
	.st2{fill:none;stroke:#000000;stroke-width:9;stroke-miterlimit:10;}
	.st3{fill:#FF0000;stroke:#000000;stroke-width:5;stroke-miterlimit:10;}
	.st4{stroke:#000000;stroke-width:5;stroke-miterlimit:10;}
</style>
<g id="Layer_1">
	<circle class="st0" cx="127.5" cy="140.5" r="113"/>
	<path class="st1" d="M152.5,119.5c0,0,2-48,27-37s13,51,13,51L152.5,119.5z"/>
	<path class="st1" d="M98.5,115.5c0,0-2.2-48-29.9-37s-14.4,51-14.4,51L98.5,115.5z"/>
	<g>
		<g>
			<path d="M755.7-43.7c7.7,0,7.7-11.9,0-11.9C748-55.6,748-43.7,755.7-43.7L755.7-43.7z"/>
		</g>
	</g>
	<path class="st2" d="M66.5,153.5c2,2,43,59,107,11"/>
	<circle cx="80" cy="113" r="10"/>
	<circle cx="173" cy="117" r="10"/>
</g>
<g id="Layer_2">
	<path class="st3" d="M243.5,142.5c0,62.4-50.6,113-113,113s-113-50.6-113-113s50.6-113,113-113c18.5,0,35.9,4.4,51.3,12.3
		C218.4,60.5,243.5,98.6,243.5,142.5z"/>
	<polygon class="st3" points="235.5,10.5 221,74.8 181.5,42.5 	"/>
	<polygon class="st3" points="11.8,20.1 73.1,44.1 35.3,78.3 	"/>
	<path class="st4" d="M159.5,121.5l42-27c0,0,10,37-7,43S159.5,121.5,159.5,121.5z"/>
	<path class="st4" d="M96,117.7L56.4,84.1c0,0-15,37.6,1.6,46.1C74.7,138.6,96,117.7,96,117.7z"/>
	<line class="st2" x1="89.5" y1="177.5" x2="146.5" y2="183.5"/>
</g>
</svg>
